<svg width="112" height="24" viewBox="0 0 112 24" fill="none" xmlns="http://www.w3.org/2000/svg">
<g clip-path="url(#clip0_7493_5313)">
<path d="M0 9.30909C0 4.17738 4.33153 0 9.48413 0C12.3338 0 14.3624 1.1122 15.8906 2.56497L14.0899 4.36009C12.9964 3.33836 11.5145 2.54368 9.48413 2.54368C5.72254 2.54368 2.78201 5.56275 2.78201 9.31086C2.78201 13.0572 5.72254 16.078 9.48413 16.078C11.9242 16.078 13.3134 15.1024 14.2039 14.2155C14.9342 13.4882 15.4115 12.4452 15.5949 11.0137H9.48413V8.47007H18.0795C18.1703 8.92417 18.2167 9.46874 18.2167 10.0594C18.2167 11.9663 17.693 14.3273 16.0046 16.0089C14.3624 17.7118 12.2661 18.62 9.48413 18.62C4.33153 18.6182 0 14.4408 0 9.30909Z" fill="#4285F4"/>
<path d="M25.1628 6.63037C21.834 6.63037 19.1214 9.15099 19.1214 12.6242C19.1214 16.076 21.834 18.618 25.1628 18.618C28.4916 18.618 31.2041 16.0743 31.2041 12.6242C31.2041 9.15099 28.4916 6.63037 25.1628 6.63037ZM25.1628 16.257C23.339 16.257 21.7663 14.7581 21.7663 12.6242C21.7663 10.4672 23.339 8.99135 25.1628 8.99135C26.9866 8.99135 28.5593 10.4672 28.5593 12.6242C28.5593 14.7581 26.9866 16.257 25.1628 16.257Z" fill="#EA4335"/>
<path d="M38.3426 6.63037C35.0138 6.63037 32.3012 9.15099 32.3012 12.6242C32.3012 16.076 35.0138 18.618 38.3426 18.618C41.6714 18.618 44.3839 16.0743 44.3839 12.6242C44.3839 9.15099 41.6714 6.63037 38.3426 6.63037ZM38.3426 16.257C36.5188 16.257 34.9461 14.7581 34.9461 12.6242C34.9461 10.4672 36.5188 8.99135 38.3426 8.99135C40.1664 8.99135 41.7391 10.4672 41.7391 12.6242C41.7391 14.7581 40.1664 16.257 38.3426 16.257Z" fill="#FBBC04"/>
<path d="M54.5199 6.99401V7.96962H54.4291C53.836 7.2654 52.6961 6.63037 51.2606 6.63037C48.2506 6.63037 45.4918 9.26452 45.4918 12.6472C45.4918 16.0086 48.2506 18.6197 51.2606 18.6197C52.6961 18.6197 53.836 17.9847 54.4291 17.2574H54.5199V18.1195C54.5199 20.4131 53.2892 21.6388 51.3051 21.6388C49.6861 21.6388 48.6834 20.4805 48.2738 19.5049L45.9709 20.4592C46.6316 22.0486 48.3878 24.0015 51.3051 24.0015C54.406 24.0015 57.0277 22.1851 57.0277 17.7576V6.99401H54.5199ZM51.4868 16.257C49.663 16.257 48.1349 14.735 48.1349 12.6472C48.1349 10.5364 49.663 8.99135 51.4868 8.99135C53.2874 8.99135 54.7016 10.5346 54.7016 12.6472C54.7016 14.7368 53.2892 16.257 51.4868 16.257Z" fill="#4285F4"/>
<path d="M61.4963 0.635254H58.8515V18.2548H61.4963V0.635254Z" fill="#34A853"/>
<path d="M68.7453 16.257C67.4006 16.257 66.4424 15.6432 65.8279 14.4406L73.8765 11.1253L73.6022 10.4441C73.0999 9.10487 71.5736 6.63037 68.4496 6.63037C65.3488 6.63037 62.7734 9.06053 62.7734 12.6242C62.7734 15.9838 65.3274 18.618 68.747 18.618C71.5059 18.618 73.1017 16.9381 73.7625 15.9607L71.7107 14.5984C71.025 15.5989 70.0917 16.257 68.7453 16.257ZM68.5404 8.94523C69.5895 8.94523 70.4782 9.46673 70.7739 10.2171L65.3933 12.4415C65.3256 10.1266 67.1957 8.94523 68.5404 8.94523Z" fill="#EA4335"/>
<path d="M75.5916 16.8479C75.5916 15.9858 76.2755 15.3047 77.1411 15.3047C78.0067 15.3047 78.6907 15.9858 78.6907 16.8479C78.6907 17.71 78.0067 18.3912 77.1411 18.3912C76.2755 18.3912 75.5916 17.71 75.5916 16.8479Z" fill="#5F6368"/>
<path d="M91.915 12.6935C91.915 16.0762 89.5213 18.6199 86.1693 18.6199C82.8174 18.6199 80.4236 16.0762 80.4236 12.6935C80.4236 9.31077 82.8174 6.76709 86.1693 6.76709C89.5213 6.76709 91.915 9.309 91.915 12.6935ZM89.8169 12.6935C89.8169 10.1498 88.0394 8.67396 86.1693 8.67396C84.2992 8.67396 82.5217 10.1498 82.5217 12.6935C82.5217 15.2372 84.2992 16.713 86.1693 16.713C88.0394 16.713 89.8169 15.2354 89.8169 12.6935Z" fill="#5F6368"/>
<path d="M93.6017 18.2564V7.12913H95.6072V8.94554H95.698C96.1539 7.6737 97.7729 6.85596 98.936 6.85596C99.6199 6.85596 100.076 6.94642 100.509 7.12913L99.7107 9.08212C99.4151 8.9686 99.0499 8.92248 98.594 8.92248C97.1585 8.92248 95.698 10.1251 95.698 12.1686V18.2546H93.6017V18.2564Z" fill="#5F6368"/>
<path d="M101.239 20.2769L103.153 19.4823C103.563 20.6636 104.772 21.6162 106.277 21.6162C108.604 21.6162 109.995 20.1173 109.995 17.7794V16.7115H109.904C109.22 17.7333 107.875 18.6184 106.096 18.6184C103.246 18.6184 100.783 16.0978 100.783 12.692C100.783 9.28625 103.244 6.76562 106.096 6.76562C107.873 6.76562 109.22 7.65077 109.904 8.6725H109.995V7.12926H112V17.6871C112 21.7297 109.218 23.5231 106.277 23.5231C103.337 23.5231 101.809 21.6162 101.239 20.2769ZM109.993 12.6938C109.993 10.1501 108.306 8.67427 106.436 8.67427C104.566 8.67427 102.879 10.1962 102.879 12.6938C102.879 15.1913 104.566 16.7133 106.436 16.7133C108.306 16.7133 109.993 15.2357 109.993 12.6938Z" fill="#5F6368"/>
</g>
<defs>
<clipPath id="clip0_7493_5313">
<rect width="112" height="24" fill="white"/>
</clipPath>
</defs>
</svg>
